<?xml version="1.0" standalone="no"?>
<svg xmlns:xlink="http://www.w3.org/1999/xlink" id="wave" style="transform:rotate(180deg); transition: 0.3s" viewBox="0 0 1440 100" version="1.1" xmlns="http://www.w3.org/2000/svg"><defs><linearGradient id="sw-gradient-0" x1="0" x2="0" y1="1" y2="0"><stop stop-color="rgba(255, 249, 234, 1)" offset="0%"/><stop stop-color="rgba(255, 249, 234, 1)" offset="100%"/></linearGradient></defs><path style="transform:translate(0, 0px); opacity:1" fill="url(#sw-gradient-0)" d="M0,70L20,63.3C40,57,80,43,120,36.7C160,30,200,30,240,31.7C280,33,320,37,360,45C400,53,440,67,480,65C520,63,560,47,600,33.3C640,20,680,10,720,6.7C760,3,800,7,840,8.3C880,10,920,10,960,16.7C1000,23,1040,37,1080,41.7C1120,47,1160,43,1200,43.3C1240,43,1280,47,1320,45C1360,43,1400,37,1440,38.3C1480,40,1520,50,1560,48.3C1600,47,1640,33,1680,35C1720,37,1760,53,1800,58.3C1840,63,1880,57,1920,56.7C1960,57,2000,63,2040,61.7C2080,60,2120,50,2160,53.3C2200,57,2240,73,2280,76.7C2320,80,2360,70,2400,65C2440,60,2480,60,2520,61.7C2560,63,2600,67,2640,70C2680,73,2720,77,2760,65C2800,53,2840,27,2860,13.3L2880,0L2880,100L2860,100C2840,100,2800,100,2760,100C2720,100,2680,100,2640,100C2600,100,2560,100,2520,100C2480,100,2440,100,2400,100C2360,100,2320,100,2280,100C2240,100,2200,100,2160,100C2120,100,2080,100,2040,100C2000,100,1960,100,1920,100C1880,100,1840,100,1800,100C1760,100,1720,100,1680,100C1640,100,1600,100,1560,100C1520,100,1480,100,1440,100C1400,100,1360,100,1320,100C1280,100,1240,100,1200,100C1160,100,1120,100,1080,100C1040,100,1000,100,960,100C920,100,880,100,840,100C800,100,760,100,720,100C680,100,640,100,600,100C560,100,520,100,480,100C440,100,400,100,360,100C320,100,280,100,240,100C200,100,160,100,120,100C80,100,40,100,20,100L0,100Z"/></svg>